<svg xmlns="http://www.w3.org/2000/svg">
<symbol id="search" viewBox="0 0 489.713 489.713">
	<path d="M483.4,454.444l-121.3-121.4c28.7-35.2,46-80,46-128.9c0-112.5-91.5-204.1-204.1-204.1S0,91.644,0,204.144   s91.5,204,204.1,204c48.8,0,93.7-17.3,128.9-46l121.3,121.3c8.3,8.3,20.9,8.3,29.2,0S491.8,462.744,483.4,454.444z M40.7,204.144   c0-90.1,73.2-163.3,163.3-163.3s163.4,73.3,163.4,163.4s-73.3,163.4-163.4,163.4S40.7,294.244,40.7,204.144z"/>
</symbol>
<symbol id="like" viewBox="0 0 500 485">
  <g stroke-width="43">
   <path d="m141.5,21.5c-66.24,0 -120,53.76 -120,120c0,134.75 135.93,170.08 228.56,303.3c87.57,-132.4 228.56,-172.85 228.56,-303.3c0,-66.24 -53.76,-120 -120,-120c-48.05,0 -89.4,28.37 -108.56,69.18c-19.16,-40.81 -60.52,-69.18 -108.56,-69.18z"/>
  </g>
</symbol>
<symbol id="cart" viewBox="0 0 225 225">
  <g transform="translate(0.000000,225.000000) scale(0.100000,-0.100000)" stroke="none">
    <path d="M1025 2236 c-125 -31 -229 -115 -287 -233 -31 -63 -33 -75 -37 -190 l-3 -123 -159 0 c-145 0 -161 -2 -179 -20 -26 -26 -26 -29 -50 -295 -11 -126 -40 -455 -65 -730 -54 -599 -54 -597 -19 -624 27 -21 32 -21 899 -21 867 0 872 0 899 21 23 18 26 27 26 82 0 34 -5 102 -10 152 -5 50 -34 374 -65 720 -30 347 -58 640 -60 653 -3 12 -14 31 -25 42 -18 18 -34 20 -179 20 l-159 0 -3 123 c-4 115 -6 127 -37 190 -91 184 -293 281 -487 233z m181 -161 c65 -19 126 -72 158 -137 23 -45 26 -65 26 -150 l0 -98 -265 0 -265 0 0 98 c0 85 3 105 26 150 60 121 189 176 320 137z m-506 -635 c0 -102 15 -130 71 -130 67 0 89 38 89 151 l0 69 265 0 265 0 0 -69 c0 -113 22 -151 89 -151 56 0 71 28 71 130 l0 90 108 0 108 0 27 -307 c74 -842 87 -981 91 -1020 l6 -43 -765 0 -765 0 6 42 c4 39 25 276 96 1076 l22 252 108 0 108 0 0 -90z"/>
  </g>
</symbol>
<symbol id="user" viewBox="0 0 64 64">
  <path xmlns="http://www.w3.org/2000/svg" d="M41.2452,33.0349a16,16,0,1,0-18.49,0A26.0412,26.0412,0,0,0,4,58a2,2,0,0,0,2,2H58a2,2,0,0,0,2-2A26.0412,26.0412,0,0,0,41.2452,33.0349ZM20,20A12,12,0,1,1,32,32,12.0137,12.0137,0,0,1,20,20ZM8.09,56A22.0293,22.0293,0,0,1,30,36h4A22.0293,22.0293,0,0,1,55.91,56Z"/>
</symbol>
<symbol id="mail" viewBox="0 0 1000 1000">
  <path d="M856.4,99.1H143.6C69.8,99.1,10,158.9,10,232.7v534.5c0,73.8,59.8,133.6,133.6,133.6h712.7c73.8,0,133.6-59.8,133.6-133.6V232.7C990,158.9,930.2,99.1,856.4,99.1z M856.4,188.2c5.1,0,10.1,0.9,14.7,2.5L500,487.5L129,190.7c4.6-1.6,9.5-2.5,14.7-2.5L856.4,188.2L856.4,188.2z M856.4,811.8H143.6c-24.6,0-44.5-19.9-44.5-44.5V280.9l373.1,298.5c8.1,6.5,18,9.8,27.8,9.8s19.7-3.3,27.8-9.8l373.1-298.5v486.4C900.9,791.9,881,811.8,856.4,811.8z"/>
</symbol>
<symbol id="sort" viewBox="0 0 512 512">
<g>
	<path d="M43.7,197.3L128,113l84.3,84.3c10,10,26.2,10,36.2,0s10-26.2,0-36.2L146.1,58.7c-10-10-26.2-10-36.2,0L7.5,161.1   c-10,10-10,26.2,0,36.2C17.5,207.3,33.7,207.3,43.7,197.3L43.7,197.3z M102.4,76.8v358.4c0,14.1,11.5,25.6,25.6,25.6   c14.1,0,25.6-11.5,25.6-25.6V76.8c0-14.1-11.5-25.6-25.6-25.6C113.9,51.2,102.4,62.7,102.4,76.8z"/>
	<path d="M468.3,314.7L384,399l-84.3-84.3c-10-10-26.2-10-36.2,0c-10,10-10,26.2,0,36.2l102.4,102.4c4.8,4.8,11.4,7.5,18.1,7.5   s13.3-2.7,18.1-7.5l102.4-102.4c10-10,10-26.2,0-36.2C494.5,304.7,478.3,304.7,468.3,314.7L468.3,314.7z M409.6,435.2V76.8   c0-14.1-11.5-25.6-25.6-25.6s-25.6,11.5-25.6,25.6v358.4c0,14.1,11.5,25.6,25.6,25.6S409.6,449.3,409.6,435.2z"/>
</g>
</symbol>
<symbol id="filter" viewBox="0 0 351 259">
   <g transform="translate(0 512) scale(0.1 -0.1)">
    <path d="m2285.75,5117.90942c-217,-42 -401,-194 -485,-401l-24,-58l-840,-5c-828,-5 -840,-5 -867,-26c-53,-39 -69,-71 -69,-134c0,-63 16,-95 69,-134c27,-21 39,-21 867,-26l840,-5l24,-58c75,-185 216,-316 415,-383c43,-15 83,-19 185,-18c117,0 137,3 205,28c183,70 313,195 386,374l23,57l200,5c182,5 202,7 227,26c53,39 69,71 69,134c0,63 -16,95 -69,134c-25,19 -45,21 -227,26l-200,5l-23,57c-73,179 -204,306 -386,373c-61,22 -95,28 -185,30c-60,2 -121,1 -135,-1zm261,-345c67,-36 98,-68 137,-143c22,-43 26,-64 26,-136c1,-78 -2,-90 -33,-148c-38,-70 -70,-100 -145,-140c-43,-22 -64,-26 -136,-26c-72,0 -93,4 -136,26c-75,40 -107,70 -145,140c-31,58 -34,70 -33,148c0,100 24,160 89,225c100,100 249,121 376,54z"/>
    <path d="m1005.75,3677.90942c-217,-42 -401,-194 -485,-401l-24,-58l-200,-5c-218,-5 -226,-8 -275,-74c-29,-39 -29,-133 0,-172c49,-66 57,-69 275,-74l200,-5l23,-57c75,-185 218,-317 416,-384c43,-15 83,-19 185,-18c117,0 137,3 205,28c183,70 313,195 386,374l23,57l840,5c828,5 840,5 867,26c53,39 69,71 69,134c0,63 -16,95 -69,134c-27,21 -39,21 -867,26l-840,5l-23,57c-73,179 -204,306 -386,373c-61,22 -95,28 -185,30c-60,2 -121,1 -135,-1zm241,-333c69,-33 112,-74 150,-143c31,-58 34,-70 34,-148c0,-78 -3,-90 -34,-148c-38,-70 -70,-100 -145,-140c-43,-22 -64,-26 -136,-26c-78,-1 -90,2 -148,33c-69,37 -109,80 -144,151c-32,66 -31,196 2,265c42,86 123,152 215,176c49,13 158,2 206,-20z"/>
 </g>
</symbol>
<symbol id="car-order" viewBox="0 0 512 512">
  <path d="M476.158,231.363l-13.259-53.035c3.625-0.77,6.345-3.986,6.345-7.839v-8.551c0-18.566-15.105-33.67-33.67-33.67h-60.392    V110.63c0-9.136-7.432-16.568-16.568-16.568H50.772c-9.136,0-16.568,7.432-16.568,16.568V256c0,4.427,3.589,8.017,8.017,8.017    c4.427,0,8.017-3.589,8.017-8.017V110.63c0-0.295,0.239-0.534,0.534-0.534h307.841c0.295,0,0.534,0.239,0.534,0.534v145.372    c0,4.427,3.589,8.017,8.017,8.017c4.427,0,8.017-3.589,8.017-8.017v-9.088h94.569c0.008,0,0.014,0.002,0.021,0.002    c0.008,0,0.015-0.001,0.022-0.001c11.637,0.008,21.518,7.646,24.912,18.171h-24.928c-4.427,0-8.017,3.589-8.017,8.017v17.102    c0,13.851,11.268,25.119,25.119,25.119h9.086v35.273h-20.962c-6.886-19.883-25.787-34.205-47.982-34.205    s-41.097,14.322-47.982,34.205h-3.86v-60.393c0-4.427-3.589-8.017-8.017-8.017c-4.427,0-8.017,3.589-8.017,8.017v60.391H192.817    c-6.886-19.883-25.787-34.205-47.982-34.205s-41.097,14.322-47.982,34.205H50.772c-0.295,0-0.534-0.239-0.534-0.534v-17.637    h34.739c4.427,0,8.017-3.589,8.017-8.017s-3.589-8.017-8.017-8.017H8.017c-4.427,0-8.017,3.589-8.017,8.017    s3.589,8.017,8.017,8.017h26.188v17.637c0,9.136,7.432,16.568,16.568,16.568h43.304c-0.002,0.178-0.014,0.355-0.014,0.534    c0,27.996,22.777,50.772,50.772,50.772s50.772-22.776,50.772-50.772c0-0.18-0.012-0.356-0.014-0.534h180.67    c-0.002,0.178-0.014,0.355-0.014,0.534c0,27.996,22.777,50.772,50.772,50.772c27.995,0,50.772-22.776,50.772-50.772    c0-0.18-0.012-0.356-0.014-0.534h26.203c4.427,0,8.017-3.589,8.017-8.017v-85.511C512,251.989,496.423,234.448,476.158,231.363z     M375.182,144.301h60.392c9.725,0,17.637,7.912,17.637,17.637v0.534h-78.029V144.301z M375.182,230.881v-52.376h71.235    l13.094,52.376H375.182z M144.835,401.904c-19.155,0-34.739-15.583-34.739-34.739s15.584-34.739,34.739-34.739    c19.155,0,34.739,15.583,34.739,34.739S163.99,401.904,144.835,401.904z M427.023,401.904c-19.155,0-34.739-15.583-34.739-34.739    s15.584-34.739,34.739-34.739c19.155,0,34.739,15.583,34.739,34.739S446.178,401.904,427.023,401.904z M495.967,299.29h-9.086    c-5.01,0-9.086-4.076-9.086-9.086v-9.086h18.171V299.29z"/>
	<path d="M144.835,350.597c-9.136,0-16.568,7.432-16.568,16.568c0,9.136,7.432,16.568,16.568,16.568    c9.136,0,16.568-7.432,16.568-16.568C161.403,358.029,153.971,350.597,144.835,350.597z"/>
	<path d="M427.023,350.597c-9.136,0-16.568,7.432-16.568,16.568c0,9.136,7.432,16.568,16.568,16.568    c9.136,0,16.568-7.432,16.568-16.568C443.591,358.029,436.159,350.597,427.023,350.597z"/>
	<path d="M332.96,316.393H213.244c-4.427,0-8.017,3.589-8.017,8.017s3.589,8.017,8.017,8.017H332.96    c4.427,0,8.017-3.589,8.017-8.017S337.388,316.393,332.96,316.393z"/>
	<path d="M127.733,282.188H25.119c-4.427,0-8.017,3.589-8.017,8.017s3.589,8.017,8.017,8.017h102.614    c4.427,0,8.017-3.589,8.017-8.017S132.16,282.188,127.733,282.188z"/>
	<path d="M278.771,173.37c-3.13-3.13-8.207-3.13-11.337,0.001l-71.292,71.291l-37.087-37.087c-3.131-3.131-8.207-3.131-11.337,0    c-3.131,3.131-3.131,8.206,0,11.337l42.756,42.756c1.565,1.566,3.617,2.348,5.668,2.348s4.104-0.782,5.668-2.348l76.96-76.96    C281.901,181.576,281.901,176.501,278.771,173.37z"/>
</symbol>
<symbol id="star" viewBox="0 0 14 13">
  <path fill-rule="evenodd" clip-rule="evenodd" d="M7.83531 10.4005L12.0813 12.9295L10.9546 8.163L14.7059 4.95597L9.76595 4.54238L7.83531 0.0471191L5.90467 4.54238L0.964722 4.95597L4.71606 8.163L3.58929 12.9295L7.83531 10.4005Z"/>
</symbol>
<symbol id="green" viewBox="0 0 13 14">
  <path fill-rule="evenodd" clip-rule="evenodd" d="M11.2382 1.93228H8.54583C8.2753 1.1851 7.56677 0.644043 6.72942 0.644043C5.89206 0.644043 5.18353 1.1851 4.913 1.93228H2.22059C1.51206 1.93228 0.932358 2.51198 0.932358 3.22051V12.2382C0.932358 12.9467 1.51206 13.5264 2.22059 13.5264H11.2382C11.9468 13.5264 12.5265 12.9467 12.5265 12.2382V3.22051C12.5265 2.51198 11.9468 1.93228 11.2382 1.93228ZM6.72941 1.93235C7.08368 1.93235 7.37353 2.22221 7.37353 2.57647C7.37353 2.93074 7.08368 3.22059 6.72941 3.22059C6.37515 3.22059 6.08529 2.93074 6.08529 2.57647C6.08529 2.22221 6.37515 1.93235 6.72941 1.93235ZM5.44118 10.9501L2.86471 8.37358L3.77291 7.46537L5.44118 9.1272L9.68591 4.88246L10.5941 5.79711L5.44118 10.9501Z" fill="#00B517"/>
</symbol>
<symbol id="close" viewBox="0 0 15 15">
<path fill-rule="evenodd" clip-rule="evenodd" d="M8.34465e-07 1.41421L12.7279 14.1421L14.1421 12.7279L1.41422 0L8.34465e-07 1.41421ZM1.41421 14.1424L14.1421 1.41446L12.7279 0.000250697L0 12.7282L1.41421 14.1424Z"/>
</symbol>
<symbol id="attach" viewBox="0 0 280.067 280.067">
	<path d="M149.823,257.142c-31.398,30.698-81.882,30.576-113.105-0.429   c-31.214-30.987-31.337-81.129-0.42-112.308l-0.026-0.018L149.841,31.615l14.203-14.098c23.522-23.356,61.65-23.356,85.172,0   s23.522,61.221,0,84.586l-125.19,123.02l-0.044-0.035c-15.428,14.771-40.018,14.666-55.262-0.394   c-15.244-15.069-15.34-39.361-0.394-54.588l-0.044-0.053l13.94-13.756l69.701-68.843l13.931,13.774l-83.632,82.599   c-7.701,7.596-7.701,19.926,0,27.53s20.188,7.604,27.88,0L235.02,87.987l-0.035-0.026l0.473-0.403   c15.682-15.568,15.682-40.823,0-56.39s-41.094-15.568-56.776,0l-0.42,0.473l-0.026-0.018l-14.194,14.089L50.466,158.485   c-23.522,23.356-23.522,61.221,0,84.577s61.659,23.356,85.163,0l99.375-98.675l14.194-14.089l14.194,14.089l-14.194,14.098   l-99.357,98.675C149.841,257.159,149.823,257.142,149.823,257.142z"/>
</symbol>
<symbol id="check" viewBox="0 0 10 8">
  <path fill-rule="evenodd" clip-rule="evenodd" d="M8.75 0C8.405 0 8.0925 0.14 7.86625 0.36625L6.61625 1.61625L3.75 4.4825L2.13375 2.86625C1.9075 2.64 1.595 2.5 1.25 2.5C0.56 2.5 0 3.06 0 3.75C0 4.095 0.14 4.4075 0.36625 4.63375L2.86625 7.13375C3.0925 7.36 3.405 7.5 3.75 7.5C4.095 7.5 4.4075 7.36 4.63375 7.13375L8.38375 3.38375L9.63375 2.13375C9.86 1.9075 10 1.595 10 1.25C10 0.559375 9.44 0 8.75 0Z"/>
</symbol>
</svg>